<svg width="512" height="512" viewBox="0 0 512 512" fill="none" xmlns="http://www.w3.org/2000/svg">
  <rect width="512" height="512" rx="128" fill="#0a0a0a"/>
  <circle cx="256" cy="256" r="180" fill="#f59e0b" fill-opacity="0.1"/>
  <path d="M150 300C150 250 180 200 256 200C332 200 362 250 362 300C362 350 332 400 256 400C180 400 150 350 150 300Z" fill="#f59e0b"/>
  <path d="M150 300L256 300L362 300" stroke="#0a0a0a" stroke-width="8" stroke-linecap="round"/>
  <path d="M256 150V200" stroke="#f59e0b" stroke-width="12" stroke-linecap="round"/>
  <circle cx="256" cy="256" r="40" fill="#0a0a0a" fill-opacity="0.2"/>
  <path d="M220 240C220 240 235 230 256 230C277 230 292 240 292 240" stroke="#0a0a0a" stroke-width="4" stroke-linecap="round"/>
</svg>
